<?xml version="1.0" standalone="no"?>
<!DOCTYPE svg PUBLIC "-//W3C//DTD SVG 20010904//EN"
 "http://www.w3.org/TR/2001/REC-SVG-20010904/DTD/svg10.dtd">
<svg version="1.0" xmlns="http://www.w3.org/2000/svg"
 width="300.000000pt" height="123.000000pt" viewBox="0 0 300.000000 123.000000"
 preserveAspectRatio="xMidYMid meet">
<metadata>
Created by potrace 1.10, written by Peter Selinger 2001-2011
</metadata>
<g transform="translate(0.000000,123.000000) scale(0.100000,-0.100000)"
fill="#000000" stroke="none">
<path d="M356 591 c-61 -119 -73 -163 -30 -112 14 18 35 36 46 42 18 10 19 8
12 -25 -7 -38 4 -47 26 -21 10 12 16 12 26 4 10 -8 22 -6 47 9 l34 19 -4 -26
c-3 -24 -3 -24 9 -7 67 96 118 143 83 76 -8 -16 -15 -37 -15 -46 0 -13 5 -11
25 10 30 33 37 33 25 0 -14 -36 -3 -48 27 -29 14 10 23 13 19 7 -3 -5 1 -15 9
-22 12 -10 21 -8 50 10 19 12 35 17 35 11 0 -18 40 -12 77 11 l35 21 -11 -21
c-27 -50 -9 -52 35 -3 25 28 49 51 54 51 4 0 2 -18 -3 -40 -6 -22 -8 -43 -4
-47 4 -4 24 9 44 30 20 20 34 39 31 43 -4 3 -21 -9 -38 -28 -22 -22 -30 -27
-25 -13 14 37 17 75 7 75 -6 0 -24 -12 -41 -26 -29 -24 -44 -21 -19 4 6 6 8
15 3 19 -4 5 -10 3 -12 -4 -4 -12 -103 -73 -117 -73 -4 0 -4 5 -1 10 15 24 -9
27 -42 5 -53 -36 -68 -31 -38 12 22 32 71 46 90 26 20 -19 33 -9 15 12 -21 25
-65 18 -114 -20 -26 -19 -48 -35 -51 -35 -2 0 0 11 5 25 11 30 -4 43 -27 23
-18 -14 -18 -14 3 37 12 29 -28 15 -64 -22 -19 -21 -30 -28 -24 -16 20 37 14
34 -33 -12 -64 -64 -87 -58 -44 11 11 19 16 34 11 34 -6 0 -20 -15 -31 -34
-12 -19 -28 -40 -37 -47 -13 -11 -14 -9 -9 13 9 34 -9 44 -40 24 -28 -18 -32
-11 -12 19 36 54 76 135 68 139 -4 3 -34 -43 -65 -103z"/>
<path d="M1166 645 c-15 -25 -40 -72 -55 -105 l-28 -59 -13 41 c-11 38 -10 43
6 55 21 16 34 -1 15 -20 -6 -6 -11 -16 -11 -21 1 -16 40 34 40 50 0 22 -47 17
-64 -7 -12 -18 -12 -26 1 -65 12 -35 13 -48 3 -59 -17 -21 -30 -19 -30 6 0 11
-4 17 -10 14 -5 -3 -10 -15 -10 -26 0 -33 42 -23 85 22 22 22 48 45 59 51 17
9 18 7 12 -26 -8 -40 2 -46 29 -16 17 19 19 19 31 2 12 -16 14 -16 43 6 25 18
31 19 31 7 0 -8 7 -15 15 -15 20 0 82 56 73 66 -4 4 -19 -5 -32 -19 -31 -33
-52 -37 -36 -6 19 35 2 35 -34 0 -45 -44 -62 -37 -36 14 29 58 20 64 -18 11
-40 -56 -55 -66 -47 -33 9 33 -10 43 -40 23 -24 -16 -34 -10 -17 10 5 5 26 39
46 77 41 74 34 94 -8 22z"/>
</g>
</svg>
